<svg xmlns="http://www.w3.org/2000/svg"
     width="48"
     height="48"
     viewBox="0 0 48 48"
     preserveAspectRatio="xMidYMid meet"
     shape-rendering="geometricPrecision">
  <path d="M 11.7129 17.4163 L 11.4450 17.9522 L 11.4067 18.9091 L 11.4067 34.5263 L 11.4450 34.7943 L 11.5981 35.1388 L 11.9043 35.4833 L 12.4019 35.7129 L 35.5215 35.7129 L 35.9426 35.5598 L 36.3254 35.2153 L 36.5550 34.6029 L 36.5550 18.1435 L 36.3636 17.5694 L 36.0957 17.2632 L 35.7895 17.0718 L 35.5215 16.9952 L 31.0048 16.9952 L 25.9904 13.3971 L 26.1053 13.0909 L 26.1435 12.4019 L 25.9904 11.8278 L 25.7608 11.4067 L 25.2632 10.9091 L 24.8038 10.6411 L 24.2297 10.4880 L 23.8469 10.4880 L 23.0813 10.7177 L 22.7751 10.9091 L 22.3158 11.3684 L 22.0861 11.7895 L 21.9330 12.2871 L 21.8947 12.6316 L 22.0096 13.2057 L 16.9569 16.9952 L 12.4402 16.9952 L 11.9809 17.1866 Z M 12.5550 18.1818 L 35.3684 18.1435 L 35.4067 34.5263 L 12.5933 34.5646 Z M 13.7033 31.9617 L 13.7033 32.1914 L 13.8182 32.4211 L 14.2010 32.6507 L 32.5359 32.6507 L 32.8804 32.4593 L 33.0335 32.1148 L 32.9187 31.7321 L 29.1675 27.9043 L 28.9761 27.6746 L 29.0144 27.6364 L 28.9761 27.6746 L 28.0191 26.7177 L 27.8660 26.6411 L 27.5215 26.6411 L 27.3684 26.7177 L 25.7225 28.5167 L 21.3971 23.5789 L 21.1675 23.3876 L 20.9761 23.3493 L 20.7081 23.3876 L 20.4402 23.6172 L 13.8947 31.6172 Z M 15.5024 31.4641 L 20.9378 24.8038 L 25.4163 29.8565 L 25.6077 29.9330 L 26.0287 29.8565 L 27.7129 28.0191 L 31.0813 31.4641 Z M 29.1675 20.7464 L 28.7081 20.8612 L 28.2488 21.0909 L 27.9426 21.3206 L 27.5598 21.7416 L 27.2153 22.4689 L 27.1388 22.8134 L 27.1388 23.3876 L 27.2153 23.8086 L 27.4067 24.2679 L 27.5981 24.5742 L 28.0574 25.0335 L 28.8612 25.4545 L 29.8182 25.4928 L 30.2775 25.3780 L 30.8134 25.1100 L 31.3493 24.5742 L 31.5789 24.1914 L 31.7321 23.7703 L 31.8086 23.3876 L 31.8086 22.8134 L 31.6938 22.3541 L 31.5024 21.9330 L 31.1196 21.4354 L 30.8517 21.2057 L 30.3158 20.8995 L 29.9713 20.7847 Z M 29.3589 21.8565 L 29.7799 21.8947 L 30.2392 22.1244 L 30.4689 22.3541 L 30.6986 22.9282 L 30.6986 23.3493 L 30.4689 23.8852 L 30.1627 24.1914 L 29.6651 24.3828 L 29.2440 24.3828 L 28.7081 24.1148 L 28.4019 23.7703 L 28.2488 23.3493 L 28.2488 22.8900 L 28.4019 22.4689 L 28.8230 22.0478 Z M 18.9091 16.9569 L 22.2775 14.4306 L 22.3158 14.4689 L 22.2775 14.4306 L 22.5837 14.2010 L 23.0048 14.5072 L 23.6555 14.7368 L 24.3445 14.7368 L 24.6890 14.6603 L 25.3014 14.3158 L 29.0144 16.9569 Z M 23.8469 11.6364 L 24.1914 11.6364 L 24.5742 11.7895 L 24.9187 12.1722 L 25.0335 12.5933 L 24.8804 13.1675 L 24.4976 13.5120 L 24.1531 13.6268 L 23.7321 13.5885 L 23.4258 13.4354 L 23.1962 13.2057 L 23.0431 12.8612 L 23.0431 12.4019 L 23.1579 12.1340 L 23.4641 11.7895 Z" fill="#FD6808" fill-rule="evenodd" clip-rule="evenodd"/>
</svg>
