<svg xmlns="http://www.w3.org/2000/svg"
     width="48"
     height="48"
     viewBox="0 0 48 48"
     preserveAspectRatio="xMidYMid meet"
     shape-rendering="geometricPrecision">
  <path d="M 33.2632 12.3636 L 32.9187 12.1340 L 32.5359 12.0191 L 31.2727 12.2105 L 20.0957 14.6220 L 19.4833 14.8517 L 19.0239 15.2344 L 18.7177 15.7703 L 18.6029 16.3445 L 18.6029 28.2488 L 18.5646 28.2871 L 18.2201 28.0191 L 17.4545 27.6746 L 16.7656 27.5215 L 16.0000 27.5215 L 15.5789 27.5981 L 14.7751 27.9043 L 14.2775 28.2105 L 13.6651 28.7847 L 13.1675 29.5502 L 12.9761 30.0478 L 12.8612 30.6220 L 12.8612 31.6172 L 13.2057 32.6890 L 13.4354 33.0718 L 13.9713 33.6842 L 14.7368 34.2201 L 15.5024 34.5263 L 15.8852 34.6029 L 16.8804 34.6029 L 17.7225 34.3732 L 18.4880 33.9522 L 19.1388 33.3397 L 19.5981 32.6124 L 19.7895 32.1148 L 19.9426 31.3493 L 19.9809 20.1340 L 32.1914 17.3780 L 32.3445 17.4163 L 32.3445 25.5694 L 32.2679 25.6077 L 31.4641 25.1100 L 30.8517 24.9187 L 30.2775 24.8421 L 29.3589 24.9187 L 28.7464 25.1100 L 28.2871 25.3397 L 27.7129 25.7608 L 27.0239 26.6029 L 26.6029 27.6364 L 26.5263 28.6699 L 26.7177 29.5885 L 27.2536 30.5837 L 27.9043 31.2344 L 28.7847 31.7321 L 29.7416 31.9617 L 30.4306 31.9617 L 30.8900 31.8852 L 31.8852 31.5024 L 32.6507 30.8900 L 33.2632 30.0478 L 33.5311 29.3971 L 33.6459 28.8230 L 33.6459 13.0526 L 33.5311 12.7081 Z M 15.9617 28.8612 L 16.8038 28.8612 L 17.1866 28.9761 L 17.6842 29.2440 L 18.0670 29.5885 L 18.2967 29.8947 L 18.6029 30.6986 L 18.5646 31.6172 L 18.2201 32.3828 L 17.5694 32.9952 L 16.7656 33.3014 L 16.0000 33.3014 L 15.5789 33.1866 L 15.0813 32.9187 L 14.5837 32.4211 L 14.3158 31.9617 L 14.2010 31.6172 L 14.1627 30.7368 L 14.2775 30.2775 L 14.4689 29.8947 L 14.6986 29.5885 L 15.0813 29.2440 L 15.5789 28.9761 Z M 29.9330 26.1435 L 30.6603 26.2201 L 31.0048 26.3349 L 31.5024 26.6411 L 32.0383 27.2536 L 32.2679 27.7512 L 32.3445 28.0957 L 32.3062 28.9378 L 32.1148 29.4354 L 31.8086 29.8947 L 31.1962 30.3923 L 30.3923 30.6603 L 29.5885 30.6220 L 29.1292 30.4689 L 28.7081 30.2010 L 28.1722 29.5885 L 27.9809 29.2057 L 27.8660 28.7081 L 27.8660 28.1340 L 27.9426 27.7512 L 28.1340 27.2919 L 28.3254 27.0239 L 28.9761 26.4498 L 29.5120 26.2201 Z M 32.3445 13.3971 L 32.3062 16.0383 L 20.0957 18.7560 L 19.9426 18.7177 L 19.9426 16.2679 L 20.1722 15.9617 L 32.1914 13.3589 Z" fill="#804DD1" fill-rule="evenodd" clip-rule="evenodd"/>
</svg>
