<svg xmlns="http://www.w3.org/2000/svg"
     width="48"
     height="48"
     viewBox="0 0 48 48"
     preserveAspectRatio="xMidYMid meet"
     shape-rendering="geometricPrecision">
  <path d="M 13.1675 13.6268 L 12.7847 14.0096 L 12.3636 14.6220 L 12.0574 15.3493 L 11.9426 15.9617 L 11.9426 32.8804 L 12.0191 33.3780 L 12.2105 33.9522 L 12.5550 34.6029 L 12.8230 34.9474 L 13.2440 35.3684 L 13.8565 35.7895 L 14.4689 36.0574 L 15.1962 36.2105 L 26.9091 36.2105 L 27.4450 36.5167 L 28.2871 36.8230 L 29.5502 37.0526 L 30.5455 37.0526 L 31.1579 36.9761 L 32.3828 36.6316 L 33.6077 35.9809 L 34.3349 35.4067 L 35.2919 34.2967 L 35.7512 33.4928 L 36.1722 32.3828 L 36.3636 31.2344 L 36.3636 30.3158 L 36.2871 29.6268 L 36.0957 28.8230 L 35.8278 28.1722 L 35.8660 16.0383 L 35.5981 14.9665 L 35.0239 14.0478 L 34.3732 13.4354 L 33.8756 13.1292 L 33.4163 12.9378 L 32.6507 12.7847 L 31.2344 12.7847 L 31.1962 11.0622 L 31.1196 10.8708 L 30.8900 10.6411 L 30.6220 10.5263 L 30.1627 10.6411 L 29.8947 10.9474 L 29.8182 12.7847 L 18.5646 12.7847 L 18.4880 10.9856 L 18.2201 10.6411 L 17.7608 10.5263 L 17.4545 10.6411 L 17.1866 10.9856 L 17.1100 12.7847 L 14.8134 12.8230 L 14.1627 13.0144 L 13.7033 13.2440 Z M 29.3589 25.7608 L 30.3923 25.7225 L 31.1579 25.8373 L 31.9234 26.0670 L 32.8804 26.5646 L 33.7225 27.2919 L 34.3732 28.1340 L 34.7943 29.0144 L 35.0239 29.8947 L 35.0622 31.2727 L 34.9474 31.9234 L 34.6794 32.7656 L 34.1818 33.6459 L 33.4545 34.4498 L 32.7656 34.9856 L 31.9617 35.4067 L 30.8517 35.7129 L 29.5120 35.7512 L 28.8612 35.6364 L 27.9809 35.3301 L 27.1770 34.8708 L 26.2201 33.9904 L 25.7608 33.3397 L 25.2632 32.2679 L 25.0718 31.3876 L 25.0718 30.0478 L 25.2249 29.3589 L 25.4928 28.6316 L 26.0670 27.6746 L 26.8325 26.8708 L 27.4833 26.4115 L 28.2871 26.0287 Z M 29.5502 27.1005 L 29.3206 27.4450 L 29.3589 31.0048 L 29.4737 31.2344 L 29.8182 31.4641 L 32.6890 32.4976 L 33.0335 32.4976 L 33.1866 32.4211 L 33.4163 32.1914 L 33.4928 31.9617 L 33.4545 31.6555 L 33.2249 31.3493 L 30.5837 30.3541 L 30.5455 27.4067 L 30.3158 27.1005 L 30.0478 26.9856 L 29.8565 26.9856 Z M 13.4354 33.3014 L 13.3206 32.8038 L 13.3589 19.8660 L 34.4880 19.9043 L 34.4498 26.1818 L 34.3349 26.0670 L 34.3732 25.9904 L 34.2967 26.0670 L 33.6077 25.4928 L 33.1866 25.2249 L 32.4976 24.9187 L 32.4976 24.8421 L 32.4211 24.8804 L 31.8086 24.6507 L 30.8900 24.4593 L 29.2057 24.4593 L 27.9426 24.7656 L 26.9474 25.2249 L 26.5263 25.4928 L 25.4545 26.4115 L 24.9569 27.0239 L 24.5359 27.6746 L 24.1148 28.6316 L 23.9234 29.2823 L 23.7703 30.3541 L 23.7703 31.1962 L 23.9617 32.3828 L 24.1531 32.9569 L 24.6507 33.9904 L 25.2632 34.8325 L 25.1866 34.9091 L 15.2727 34.8708 L 14.8517 34.7560 L 14.2010 34.3732 L 13.8182 33.9904 Z M 13.3206 16.0383 L 13.5502 15.3110 L 13.9330 14.8134 L 13.9713 14.8517 L 13.9713 14.7751 L 14.1244 14.6220 L 14.5455 14.3541 L 15.2727 14.1627 L 17.1100 14.1627 L 17.1866 15.8086 L 17.3780 16.0766 L 17.7990 16.2679 L 18.1818 16.1531 L 18.4115 15.9617 L 18.4880 15.8086 L 18.5646 14.1627 L 29.8182 14.1627 L 29.8565 15.7703 L 30.1244 16.1148 L 30.3158 16.2297 L 30.5837 16.2679 L 30.8900 16.1531 L 31.0813 15.9617 L 31.1962 15.7321 L 31.1962 14.2010 L 32.4593 14.1627 L 33.0335 14.2775 L 33.6077 14.5837 L 34.0670 15.0431 L 34.2967 15.4258 L 34.4880 16.1148 L 34.4880 18.4498 L 13.3589 18.4880 Z" fill="#FD6607" fill-rule="evenodd" clip-rule="evenodd"/>
</svg>
