<svg xmlns="http://www.w3.org/2000/svg"
     width="48"
     height="48"
     viewBox="0 0 48 48"
     preserveAspectRatio="xMidYMid meet"
     shape-rendering="geometricPrecision">
  <path d="M 17.6077 11.3684 L 17.0718 11.7512 L 16.3828 12.5550 L 16.0766 13.2057 L 15.9234 13.8565 L 15.9234 14.6603 L 16.1531 15.5407 L 16.5742 16.3062 L 16.9569 16.7273 L 13.7033 16.7656 L 13.1292 16.9187 L 12.5167 17.2632 L 12.0957 17.6842 L 11.7512 18.2967 L 11.6364 18.6794 L 11.5981 21.6651 L 11.7512 22.1627 L 11.9426 22.5072 L 12.4785 22.9665 L 12.4402 33.9139 L 12.5167 34.6794 L 12.8230 35.5215 L 13.1292 35.9809 L 13.8565 36.6316 L 14.5837 36.9761 L 15.0813 37.0909 L 32.8804 37.0909 L 33.6077 36.8995 L 33.9904 36.7081 L 34.4115 36.4019 L 35.1005 35.5981 L 35.4067 34.8708 L 35.5215 34.1818 L 35.4833 23.3876 L 35.5215 22.9282 L 35.7129 22.8134 L 36.0957 22.3923 L 36.2871 22.0096 L 36.3636 21.5885 L 36.3636 18.8708 L 36.2488 18.3732 L 35.9043 17.7225 L 35.2153 17.1100 L 34.8325 16.9187 L 34.4115 16.8038 L 31.0813 16.7273 L 31.5407 16.1914 L 31.9617 15.2727 L 32.0766 14.6603 L 32.0383 13.5885 L 31.8086 12.8995 L 31.3876 12.2105 L 30.8134 11.6364 L 30.0478 11.1770 L 29.1292 10.9474 L 28.4019 10.9474 L 27.5215 11.1770 L 26.7943 11.5598 L 25.8373 12.4402 L 25.2632 13.2440 L 24.4593 14.7368 L 24.0766 15.6555 L 23.3110 14.0096 L 22.7751 13.1292 L 22.0478 12.2105 L 21.2057 11.5215 L 20.4402 11.1388 L 19.6746 10.9474 L 18.9091 10.9474 L 18.4880 11.0239 Z M 24.6507 23.1579 L 34.2584 23.1962 L 34.2584 34.2584 L 34.1818 34.6411 L 33.9904 35.0239 L 33.6077 35.4833 L 33.1483 35.7512 L 32.4976 35.9043 L 24.5742 35.8660 L 24.5742 23.3876 Z M 13.7416 23.1579 L 23.3876 23.1962 L 23.3876 35.8278 L 23.3110 35.9043 L 15.3876 35.9043 L 15.0048 35.8278 L 14.5837 35.6364 L 14.3158 35.4450 L 14.0096 35.1005 L 13.7799 34.6411 L 13.7033 34.2584 Z M 24.5742 18.0670 L 34.1818 18.0287 L 34.4115 18.1053 L 34.9091 18.4880 L 35.1005 18.9474 L 35.0622 21.6651 L 34.9856 21.7799 L 34.7560 21.8947 L 24.6124 21.8947 Z M 12.8995 18.7943 L 13.0909 18.4498 L 13.3206 18.2201 L 13.7799 18.0287 L 23.3493 18.0287 L 23.3876 21.8565 L 13.2057 21.8947 L 13.0144 21.8182 L 12.8612 21.5885 Z M 30.5455 13.1675 L 30.7368 13.5885 L 30.8517 14.0861 L 30.7368 14.9665 L 30.3923 15.6172 L 29.7033 16.2297 L 28.9761 16.5359 L 27.9809 16.7273 L 25.0335 16.7273 L 25.6077 15.2344 L 26.3349 13.8947 L 26.9474 13.0909 L 27.5215 12.5933 L 28.2871 12.2488 L 29.1292 12.2105 L 29.6268 12.3636 L 30.0096 12.5933 Z M 17.4545 13.2057 L 17.6842 12.8995 L 18.0670 12.5550 L 18.4115 12.3636 L 18.9091 12.2105 L 19.5981 12.2105 L 19.9426 12.2871 L 20.4402 12.5167 L 20.8230 12.7847 L 21.3206 13.2823 L 22.0096 14.2392 L 22.6220 15.4258 L 23.1196 16.7273 L 20.0957 16.7273 L 19.1005 16.5359 L 18.6411 16.3828 L 18.2201 16.1531 L 17.6077 15.5789 L 17.2249 14.8134 L 17.1483 14.2392 L 17.1866 13.9330 Z" fill="#32BE46" fill-rule="evenodd" clip-rule="evenodd"/>
</svg>
