    <svg xmlns="http://www.w3.org/2000/svg"
         width="48" height="48" viewBox="0 0 48 48"
         fill="none" role="img" aria-hidden="true">
      <g stroke="#FF7A00" stroke-width="2.4" stroke-linecap="round" stroke-linejoin="round">
  <path d="M24 6V10"/>
  <path d="M18 10H30"/>
  <path d="M16 14C18 11.5 21 10 24 10C27 10 30 11.5 32 14"/>
  <path d="M16 14C14 19 14 27 16 32C18 35 21 36.5 24 36.5C27 36.5 30 35 32 32C34 27 34 19 32 14"/>
  <path d="M20 14V33M24 13V36M28 14V33"/>
  <path d="M19 37H29M24 37V41"/>
  <path d="M21 41V44M24 41V44M27 41V44"/>
</g>
    </svg>
