<svg xmlns="http://www.w3.org/2000/svg"
     width="48"
     height="48"
     viewBox="0 0 48 48"
     preserveAspectRatio="xMidYMid meet"
     shape-rendering="geometricPrecision">
  <path d="M 15.1196 15.0048 L 14.5072 15.7703 L 14.2010 16.4976 L 14.0861 17.0718 L 14.0861 31.3493 L 14.3158 32.2297 L 14.8134 33.0718 L 15.3876 33.6077 L 15.9617 33.9522 L 16.6890 34.1818 L 17.3780 34.2584 L 31.0431 34.2201 L 32.0000 33.9522 L 32.7273 33.4928 L 33.1100 33.1100 L 33.5694 32.4211 L 33.8756 31.4258 L 33.8756 16.9952 L 33.7990 16.5742 L 33.5694 15.9617 L 33.1483 15.3110 L 32.5742 14.7751 L 32.0766 14.4689 L 31.5789 14.2775 L 31.0048 14.1627 L 29.3206 14.1627 L 29.2440 12.7081 L 29.0144 12.4019 L 28.7464 12.2871 L 28.5167 12.2871 L 28.2488 12.4019 L 28.0191 12.7081 L 27.9426 14.1627 L 20.0191 14.1627 L 19.9426 12.7081 L 19.7129 12.4019 L 19.4067 12.2871 L 19.2153 12.2871 L 18.9856 12.3636 L 18.7943 12.5550 L 18.6794 12.8230 L 18.6411 14.1627 L 16.9187 14.1627 L 16.5359 14.2392 L 15.6172 14.6220 Z M 15.3493 20.7081 L 32.5742 20.6699 L 32.6124 31.1579 L 32.3828 31.8852 L 32.1148 32.2679 L 31.7703 32.5742 L 31.3493 32.8038 L 30.8517 32.9187 L 17.1100 32.9187 L 16.7273 32.8421 L 16.3062 32.6507 L 15.9234 32.3445 L 15.5789 31.8852 L 15.3493 31.1579 Z M 27.8278 26.8325 L 27.4450 26.9091 L 27.0239 27.1005 L 26.5263 27.5598 L 26.2201 28.1722 L 26.1818 28.9378 L 26.3349 29.4354 L 26.6411 29.8947 L 27.2536 30.3158 L 27.6364 30.4306 L 28.2871 30.4306 L 28.8995 30.2010 L 29.3971 29.7416 L 29.7033 29.1292 L 29.7416 28.3636 L 29.5120 27.7129 L 29.1292 27.2536 L 28.3636 26.8708 Z M 15.3493 17.2632 L 15.5407 16.5742 L 15.7703 16.2297 L 16.3062 15.7321 L 17.0335 15.4641 L 18.6411 15.4641 L 18.7177 16.8421 L 18.8708 17.0718 L 19.1005 17.2249 L 19.2919 17.2632 L 19.6746 17.1483 L 19.9426 16.8421 L 20.0191 15.4641 L 27.9426 15.4641 L 28.0191 16.8421 L 28.3254 17.1866 L 28.5550 17.2632 L 28.8612 17.2249 L 29.2440 16.8421 L 29.3206 15.4641 L 30.8900 15.4641 L 31.3493 15.5789 L 31.8086 15.8469 L 32.2297 16.2679 L 32.4976 16.7273 L 32.6124 17.2249 L 32.6124 19.2919 L 15.3876 19.3301 Z" fill="#FB6A09" fill-rule="evenodd" clip-rule="evenodd"/>
</svg>
