<svg xmlns="http://www.w3.org/2000/svg"
     width="48"
     height="48"
     viewBox="0 0 48 48"
     preserveAspectRatio="xMidYMid meet"
     shape-rendering="geometricPrecision">
  <path d="M 24.0383 7.3493 L 23.1962 7.4258 L 22.4689 7.7321 L 21.9713 8.1148 L 21.5120 8.7273 L 21.2057 9.5311 L 21.1675 10.2201 L 21.3206 10.9474 L 21.7416 11.6746 L 20.6316 11.7129 L 20.3254 11.8278 L 19.9809 12.1340 L 19.7895 12.5167 L 19.7512 14.2010 L 18.6029 14.5455 L 17.4163 15.1196 L 16.3445 15.8852 L 15.3493 16.9187 L 14.7368 17.8756 L 14.2775 18.9091 L 13.9713 20.0957 L 13.8565 21.0909 L 13.8947 22.6603 L 14.2392 24.1914 L 14.5455 24.9952 L 15.1579 26.0670 L 15.7703 26.8325 L 16.6890 27.6746 L 17.6842 28.3254 L 18.5646 28.7464 L 19.7129 29.1292 L 19.7129 30.8517 L 19.9426 31.2727 L 20.2488 31.5407 L 20.6699 31.6938 L 23.3110 31.7321 L 23.3110 33.6459 L 22.8134 33.9139 L 22.3923 34.3349 L 22.1627 34.7560 L 22.0478 35.2153 L 22.0478 39.8469 L 22.1244 40.0383 L 22.2775 40.1914 L 22.4689 40.2679 L 22.6220 40.2679 L 22.8517 40.1531 L 23.0048 39.8852 L 23.0431 36.5167 L 23.3110 36.5550 L 23.3110 39.8852 L 23.3876 40.0766 L 23.6555 40.2679 L 23.8469 40.2679 L 24.0383 40.1914 L 24.2297 39.9617 L 24.2297 36.7081 L 24.3062 36.5167 L 24.4976 36.5167 L 24.5742 36.5933 L 24.5742 39.9617 L 24.8038 40.2297 L 25.0718 40.2679 L 25.2632 40.1914 L 25.4928 39.8852 L 25.4928 35.1005 L 25.3397 34.6029 L 25.1483 34.2967 L 24.8038 33.9522 L 24.2679 33.6459 L 24.2297 31.7321 L 26.8708 31.6938 L 27.2536 31.5789 L 27.6364 31.2344 L 27.7895 31.0048 L 27.8660 30.6986 L 27.8660 29.1292 L 29.4354 28.5550 L 30.5837 27.9043 L 31.4258 27.2153 L 31.8469 26.7943 L 32.4211 26.0670 L 32.7656 25.4928 L 33.2632 24.3828 L 33.5694 23.3110 L 33.7225 22.1627 L 33.7225 21.0144 L 33.5694 19.8660 L 33.2249 18.7177 L 32.8804 17.9522 L 32.5359 17.3780 L 31.7321 16.3828 L 30.6603 15.4641 L 30.0861 15.0813 L 29.2440 14.6603 L 27.9809 14.2392 L 27.9809 12.6316 L 27.8278 12.2105 L 27.5981 11.9426 L 27.1005 11.7129 L 25.7990 11.6746 L 26.2201 10.9856 L 26.3732 10.4115 L 26.3732 9.6077 L 26.2201 9.0718 L 25.9139 8.4976 L 25.4163 7.9617 L 24.8038 7.5789 Z M 23.0048 35.1770 L 23.0813 34.9856 L 23.3876 34.6794 L 23.5407 34.6029 L 24.0000 34.6029 L 24.1914 34.6794 L 24.4593 34.9474 L 24.5359 35.1005 L 24.5742 35.5215 L 23.0431 35.5598 Z M 20.6316 29.3589 L 26.8708 29.3206 L 26.9091 30.5837 L 26.6794 30.7368 L 20.8230 30.7368 L 20.6316 30.5455 Z M 19.8660 15.1962 L 20.0574 15.2344 L 19.3301 16.2679 L 18.9474 17.0335 L 18.5263 18.2201 L 18.1818 19.8660 L 18.0670 21.1292 L 18.0670 22.1244 L 18.2201 23.6938 L 18.6794 25.5694 L 19.1388 26.7177 L 19.6364 27.5981 L 20.0574 28.1340 L 20.0191 28.1722 L 18.9091 27.8278 L 17.8373 27.2919 L 16.9187 26.6029 L 16.1914 25.8373 L 15.5789 24.9187 L 15.1579 23.9234 L 14.8900 22.8134 L 14.8134 22.1244 L 14.8134 21.0526 L 15.0431 19.6746 L 15.3876 18.7177 L 16.0766 17.5694 L 16.7656 16.8038 L 17.8373 16.0000 L 18.7560 15.5407 Z M 27.4833 15.1579 L 28.7847 15.5407 L 29.7033 16.0000 L 30.6220 16.6507 L 31.2344 17.2632 L 31.7321 17.9139 L 32.1914 18.7560 L 32.5742 19.8660 L 32.7656 21.0909 L 32.7656 22.1244 L 32.5742 23.3493 L 32.3062 24.2297 L 31.6938 25.4163 L 31.0048 26.2584 L 30.1244 27.0239 L 29.0144 27.6746 L 27.5981 28.1722 L 27.4833 28.1340 L 27.9426 27.5215 L 28.6699 26.0670 L 29.1675 24.4211 L 29.4354 22.5837 L 29.4354 20.5933 L 29.2440 19.1770 L 28.8995 17.8373 L 28.2871 16.4211 L 27.7129 15.5024 L 27.4833 15.2727 Z M 24.3062 15.1196 L 25.8756 15.1196 L 26.4498 15.5407 L 26.8708 16.0000 L 27.4067 16.8038 L 27.8660 17.8373 L 28.2488 19.1770 L 28.4402 20.4019 L 28.4402 22.8134 L 28.2105 24.2679 L 27.9426 25.2632 L 27.5598 26.2201 L 26.9474 27.2536 L 26.2201 28.0574 L 25.8373 28.3254 L 24.2297 28.2871 Z M 21.6268 15.1196 L 23.2727 15.1196 L 23.3493 15.4641 L 23.2727 28.3254 L 21.6651 28.3254 L 21.3589 28.0957 L 20.6699 27.3684 L 20.2105 26.6794 L 19.6364 25.4163 L 19.3301 24.3445 L 19.1005 22.9282 L 19.0239 22.0096 L 19.0622 20.6316 L 19.2153 19.5215 L 19.5598 18.1435 L 19.9426 17.1483 L 20.5167 16.1914 L 21.2440 15.3876 Z M 20.7081 12.7847 L 20.7847 12.7081 L 26.9856 12.7081 L 27.0239 14.0861 L 20.7464 14.1244 Z M 23.0813 8.4976 L 23.4258 8.3828 L 24.1148 8.3828 L 24.4593 8.4976 L 24.7273 8.6507 L 25.1100 9.0335 L 25.3397 9.4545 L 25.4163 9.7608 L 25.4163 10.2584 L 25.3014 10.6794 L 25.0718 11.0622 L 24.7273 11.4067 L 24.3828 11.5981 L 23.8086 11.7129 L 23.1962 11.5981 L 22.7368 11.3301 L 22.3923 10.9474 L 22.2392 10.6411 L 22.1244 10.1818 L 22.1244 9.8756 L 22.2392 9.3780 L 22.4306 9.0335 L 22.7751 8.6890 Z" fill="#FB680A" fill-rule="evenodd" clip-rule="evenodd"/>
</svg>
