<svg xmlns="http://www.w3.org/2000/svg"
     width="48"
     height="48"
     viewBox="0 0 48 48"
     preserveAspectRatio="xMidYMid meet"
     shape-rendering="geometricPrecision">
  <path d="M 23.8086 10.8325 L 23.4258 10.9856 L 23.1962 11.1770 L 18.7560 17.3014 L 18.5263 17.7225 L 18.4115 18.3349 L 18.5646 18.9091 L 19.1005 19.4450 L 19.6746 19.6364 L 16.6124 23.2344 L 16.3828 23.6172 L 16.2679 23.9617 L 16.2679 24.5742 L 16.4976 25.0718 L 16.9569 25.4928 L 17.3014 25.6077 L 17.9139 25.6842 L 14.7751 29.5120 L 14.5072 30.1244 L 14.4306 30.7751 L 14.5072 31.3110 L 14.7751 31.8852 L 15.1579 32.3062 L 15.7321 32.6124 L 16.0766 32.6890 L 21.6651 32.6890 L 21.7033 36.0574 L 21.8182 36.4402 L 22.0096 36.7081 L 22.2775 36.9378 L 22.8517 37.1292 L 25.0335 37.1292 L 25.3014 37.0909 L 25.7225 36.8995 L 26.0287 36.5933 L 26.2201 36.1722 L 26.2201 32.7656 L 26.2967 32.6890 L 31.8852 32.6890 L 32.1914 32.6124 L 32.7656 32.3062 L 33.1866 31.8469 L 33.4545 31.1962 L 33.4928 30.5072 L 33.3780 29.9713 L 33.0718 29.3971 L 30.0096 25.6842 L 30.1627 25.6077 L 30.3541 25.6459 L 30.7751 25.5694 L 31.1962 25.3397 L 31.5789 24.8421 L 31.6938 24.1914 L 31.5789 23.6938 L 31.3493 23.2727 L 28.2871 19.6364 L 28.8995 19.4067 L 29.2057 19.1388 L 29.3589 18.9091 L 29.5120 18.2967 L 29.3589 17.6077 L 24.6890 11.1388 L 24.2679 10.8708 Z M 22.9282 32.6890 L 25.0335 32.7273 L 24.9952 35.9043 L 22.8900 35.8660 Z M 23.9617 12.2488 L 24.1531 12.4402 L 28.2488 18.1435 L 28.2871 18.2967 L 28.2105 18.3732 L 27.4067 18.3732 L 26.9091 18.5646 L 26.7560 18.7177 L 26.6029 19.0239 L 26.6411 19.5598 L 26.9856 20.0574 L 30.4689 24.1914 L 30.4689 24.3062 L 30.3541 24.4211 L 29.3971 24.3828 L 28.9761 24.4976 L 28.5933 24.8421 L 28.4402 25.2632 L 28.4402 25.4928 L 28.5550 25.8373 L 32.1914 30.3158 L 32.2679 30.5455 L 32.2297 31.0813 L 31.8469 31.4641 L 16.2297 31.5024 L 15.9617 31.3876 L 15.6938 31.0431 L 15.6555 30.5455 L 15.8086 30.2010 L 18.9091 26.4498 L 19.4450 25.6842 L 19.4833 25.2249 L 19.4067 24.9569 L 19.2153 24.6890 L 18.8325 24.4593 L 18.4880 24.3828 L 17.5694 24.4211 L 17.4545 24.3445 L 17.4545 24.1914 L 20.9761 20.0191 L 21.2823 19.5598 L 21.3206 19.0239 L 21.2440 18.8325 L 21.0144 18.5646 L 20.5550 18.3732 L 19.7129 18.3732 L 19.6746 18.1435 Z" fill="#2FAE27" fill-rule="evenodd" clip-rule="evenodd"/>
</svg>
